<svg aria-hidden="true" style="position:absolute;width:0;height:0;overflow:hidden" xmlns="http://www.w3.org/2000/svg"><defs><symbol id="icon-car" viewBox="0 0 32 32"><path d="M28 6.667h4a4.65 4.65 0 0 1-8.402.028l-.012-.028H8.413a4.65 4.65 0 0 1-8.402.028l-.012-.028h4v-4h-4C.761 1.078 2.357-.001 4.206-.001s3.445 1.078 4.195 2.64l.012.028h15.173c.762-1.589 2.358-2.668 4.207-2.668s3.445 1.078 4.195 2.64l.012.028h-4zm1.009 10.442c1.042 2.118 1.654 4.611 1.657 7.245v4.979h-2.667V32h-6.667v-2.667H10.665V32H3.998v-2.667H1.331v-4.977a16.714 16.714 0 0 1 1.701-7.346l-.044.099 2.476-5.137C6.241 10.4 7.831 9.338 9.67 9.333h12.654a4.688 4.688 0 0 1 4.194 2.611l.012.027zM7.333 21.333a2 2 0 1 0 0 4 2 2 0 1 0 0-4zm17.343-4-1.743-3.623a.666.666 0 0 0-.6-.377H9.673a.665.665 0 0 0-.598.373l-.002.004-1.749 3.623zm-.009 4a2 2 0 1 0 0 4 2 2 0 1 0 0-4z"/></symbol><symbol id="icon-linkedin" viewBox="0 0 32 32"><path d="M30.669 28.779h.303l-.58-.877c.355 0 .543-.225.545-.501l-.001-.033c0-.376-.227-.556-.692-.556h-.752v1.968h.283v-.857h.348l.547.857zm-.566-1.08h-.328v-.665h.416c.215 0 .46.035.46.316 0 .323-.248.349-.549.349zM23.055 25.431h-4.009v-6.279c0-1.497-.027-3.424-2.085-3.424-2.088 0-2.408 1.631-2.408 3.316v6.387h-4.008V12.519h3.849v1.764h.053a4.218 4.218 0 0 1 3.797-2.085c4.064 0 4.812 2.673 4.812 6.149l-.001 7.084zM6.02 10.753a2.327 2.327 0 1 1 0-4.653 2.327 2.327 0 0 1 0 4.653zm2.004 14.678H4.011V12.519h4.013v12.912zM25.053 2.377H1.996A1.975 1.975 0 0 0 0 4.328V27.48a1.975 1.975 0 0 0 1.996 1.952h23.057a1.98 1.98 0 0 0 2.004-1.952V4.327a1.98 1.98 0 0 0-2.004-1.951z"/><path d="M30.137 25.935a1.844 1.844 0 1 0 .036 0h-.036zm.043 3.477c-.893.015-1.672-.696-1.687-1.589a1.617 1.617 0 1 1 3.235-.053v.027a1.583 1.583 0 0 1-1.548 1.616h-.041z"/></symbol><symbol id="icon-github" viewBox="0 0 32 32"><path d="M16 .395c-8.836 0-16 7.163-16 16 0 7.069 4.584 13.067 10.941 15.183.8.148 1.093-.347 1.093-.769 0-.381-.015-1.641-.021-2.979-4.451.968-5.391-1.888-5.391-1.888-.728-1.849-1.776-2.341-1.776-2.341-1.452-.993.109-.972.109-.972 1.607.113 2.452 1.649 2.452 1.649 1.427 2.445 3.743 1.739 4.656 1.329.144-1.035.559-1.74 1.016-2.14-3.553-.404-7.289-1.776-7.289-7.907 0-1.747.625-3.175 1.649-4.295-.167-.404-.715-2.031.155-4.235 0 0 1.344-.429 4.401 1.64a15.345 15.345 0 0 1 4.004-.539c1.36.007 2.729.184 4.008.539 3.053-2.071 4.396-1.64 4.396-1.64.871 2.204.323 3.831.157 4.235 1.025 1.12 1.647 2.548 1.647 4.295 0 6.145-3.743 7.499-7.305 7.895.573.496 1.085 1.471 1.085 2.963 0 2.141-.019 3.864-.019 4.391 0 .425.288.925 1.099.768C27.422 29.458 32 23.464 32 16.397 31.999 7.56 24.835.396 15.999.396z"/><path d="M6.06 23.368c-.035.08-.16.104-.275.049-.116-.052-.181-.161-.144-.24.035-.081.16-.104.276-.049.116.051.183.16.143.24zM6.708 24.091c-.076.071-.225.037-.327-.073-.105-.112-.124-.261-.047-.332.079-.071.223-.037.328.075.105.111.125.259.045.331zM7.339 25.012c-.099.068-.259.004-.357-.137-.099-.143-.099-.313.003-.381.099-.068.257-.007.357.135.097.144.097.315-.003.384zM8.203 25.903c-.088.097-.275.071-.411-.061-.14-.129-.179-.312-.091-.409.089-.097.277-.069.415.061.139.129.18.313.087.409zM9.396 26.419c-.039.125-.219.183-.4.129-.181-.055-.3-.201-.263-.328s.219-.185.401-.128c.18.053.299.2.261.327zM10.705 26.515c.004.132-.149.241-.34.244-.191.004-.347-.103-.348-.232 0-.133.151-.241.341-.245s.347.103.347.233zM11.924 26.308c.023.128-.109.261-.299.296-.185.035-.357-.045-.381-.173-.023-.132.112-.264.297-.299.188-.033.359.044.383.176z"/></symbol><symbol id="icon-instagram" viewBox="0 0 32 32"><path d="M16 2.883c4.272 0 4.779.016 6.465.093 1.744.08 3.54.477 4.811 1.748 1.283 1.283 1.668 3.061 1.748 4.811.077 1.687.093 2.193.093 6.465s-.016 4.779-.093 6.465c-.079 1.735-.485 3.548-1.748 4.811-1.283 1.283-3.06 1.668-4.811 1.748-1.687.077-2.193.093-6.465.093s-4.779-.016-6.465-.093c-1.721-.079-3.559-.495-4.811-1.748C3.448 26 3.056 24.204 2.976 22.465c-.077-1.687-.093-2.193-.093-6.465s.016-4.779.093-6.465c.079-1.728.489-3.552 1.748-4.811 1.28-1.28 3.065-1.668 4.811-1.748 1.687-.077 2.193-.093 6.465-.093zM16 0c-4.345 0-4.891.019-6.597.096C6.93.209 4.474.897 2.686 2.685.891 4.48.21 6.93.097 9.402.02 11.109.001 11.654.001 15.999s.019 4.891.096 6.597c.113 2.471.804 4.933 2.589 6.717 1.793 1.793 4.248 2.476 6.717 2.589 1.707.077 2.252.096 6.597.096s4.891-.019 6.597-.096c2.472-.113 4.931-.803 6.717-2.589 1.796-1.796 2.476-4.245 2.589-6.717.077-1.707.096-2.252.096-6.597s-.019-4.891-.096-6.597c-.113-2.473-.803-4.931-2.589-6.717C27.523.894 25.062.208 22.597.096 20.89.019 20.345 0 16 0z"/><path d="M16 7.784a8.217 8.217 0 1 0 .001 16.433A8.217 8.217 0 0 0 16 7.784zm0 13.549a5.333 5.333 0 1 1 0-10.667 5.333 5.333 0 0 1 0 10.667zM26.461 7.459a1.92 1.92 0 1 1-3.841-.001 1.92 1.92 0 0 1 3.841.001z"/></symbol><symbol id="icon-telegram" viewBox="0 0 32 32"><path d="M16 0C7.164 0 0 7.164 0 16s7.164 16 16 16 16-7.164 16-16S24.836 0 16 0zm7.416 10.881c-.24 2.529-1.283 8.669-1.812 11.503-.224 1.2-.667 1.601-1.093 1.64-.929.085-1.635-.615-2.535-1.204-1.408-.923-2.204-1.497-3.571-2.399-1.58-1.041-.556-1.613.344-2.548.236-.245 4.329-3.969 4.409-4.307.009-.043.02-.2-.075-.283s-.232-.055-.331-.032c-.141.032-2.391 1.519-6.749 4.46-.639.439-1.217.652-1.736.641-.571-.012-1.669-.323-2.487-.589-1.001-.325-1.799-.499-1.729-1.051.036-.288.432-.583 1.189-.884 4.664-2.032 7.775-3.372 9.331-4.02 4.444-1.848 5.367-2.169 5.969-2.18.755-.011.936.612.875 1.252z"/></symbol><symbol id="icon-sack" viewBox="0 0 32 32"><path d="M19.531 7.324c1.164-.935 2.363-2.191 2.971-3.719a2.598 2.598 0 0 0-.273-2.421A2.692 2.692 0 0 0 20.001 0h-8c-.892 0-1.725.443-2.228 1.184A2.601 2.601 0 0 0 9.5 3.605c.608 1.527 1.807 2.784 2.971 3.719C6.263 9.628 1.335 17.545 1.335 24c0 4.412 3.588 8 8 8h13.333c4.412 0 8-3.588 8-8 0-6.455-4.928-14.372-11.136-16.676zm.492-4.704c-.688 1.729-2.792 3.191-4.025 3.88-1.231-.684-3.327-2.133-3.999-3.833l8.024-.047zm2.642 26.713H9.333A5.339 5.339 0 0 1 4 24c0-6.991 6.28-14.667 12-14.667S28 17.009 28 24a5.339 5.339 0 0 1-5.333 5.333zm-6.666 0A1.333 1.333 0 0 1 14.666 28v-1.333h-.357a4.01 4.01 0 0 1-3.464-1.999 1.333 1.333 0 1 1 2.308-1.334 1.34 1.34 0 0 0 1.156.667h3.024c.735 0 1.333-.599 1.333-1.333 0-.504-.361-.931-.859-1.013l-4.056-.676a3.683 3.683 0 0 1-3.087-3.644c0-2.205 1.795-4 4-4v-1.333a1.333 1.333 0 0 1 2.666 0v1.333h.357c1.423 0 2.751.767 3.464 2a1.333 1.333 0 1 1-2.308 1.334 1.34 1.34 0 0 0-1.156-.667h-3.024c-.735 0-1.333.599-1.333 1.333 0 .504.361.931.859 1.013l4.056.676a3.683 3.683 0 0 1 3.087 3.644c0 2.205-1.795 4-4 4v1.333c0 .736-.597 1.333-1.333 1.333z"/></symbol><symbol id="icon-trophy" viewBox="0 0 32 32"><path d="M20.089 21.331C28.874 21.299 32 16.651 32 12.667a4.67 4.67 0 0 0-3.68-4.557c.415-1.176.728-2.308.936-3.319a3.95 3.95 0 0 0-.817-3.301A4.031 4.031 0 0 0 25.303.001H6.698A4.033 4.033 0 0 0 3.562 1.49a3.945 3.945 0 0 0-.817 3.301c.208 1.012.521 2.143.936 3.319a4.672 4.672 0 0 0-3.68 4.557c0 3.984 3.125 8.631 11.911 8.664.04.281.089.561.089.852v4.484c0 2.435-2.048 2.656-2.667 2.667H6.667v2.667h18.667v-2.667h-2.656c-.629-.011-2.677-.232-2.677-2.667v-4.484c0-.291.049-.571.089-.852zm7.244-10.664c1.103 0 2 .897 2 2 0 2.731-2.175 5.633-8.165 5.967.24-.311.509-.593.812-.835 2.291-1.831 4.032-4.468 5.279-7.132h.076zm-24.666 2c0-1.103.897-2 2-2h.076c1.247 2.664 2.987 5.301 5.277 7.132.303.241.573.524.812.835-5.991-.333-8.165-3.236-8.165-5.967zm14.666 9.516v4.484c0 1.075.255 1.945.649 2.667h-3.964c.393-.721.649-1.592.649-2.667v-4.484c0-2.595-1.085-4.952-2.981-6.468C8.402 13.09 6.141 8.068 5.358 4.254c-.107-.52.125-.899.271-1.08A1.376 1.376 0 0 1 6.7 2.666h18.604c.416 0 .805.185 1.069.508.147.181.379.561.272 1.08-.783 3.812-3.043 8.835-6.328 11.461-1.895 1.515-2.981 3.871-2.981 6.468zm-.634-16.85.869 2.673h2.812l.4 1.224-2.275 1.653.869 2.675-1.041.756-2.273-1.648-2.28 1.649-1.041-.756.869-2.675-2.275-1.653.4-1.224h2.809l.869-2.667 1.287-.008z"/></symbol></defs></svg>